<?xml version="1.0" standalone="no"?>
<!DOCTYPE svg PUBLIC "-//W3C//DTD SVG 20010904//EN"
 "http://www.w3.org/TR/2001/REC-SVG-20010904/DTD/svg10.dtd">
<svg version="1.0" xmlns="http://www.w3.org/2000/svg"
 width="3072.000000pt" height="3072.000000pt" viewBox="0 0 3072.000000 3072.000000"
 preserveAspectRatio="xMidYMid meet">
<metadata>
Created by potrace 1.11, written by Peter Selinger 2001-2013
</metadata>
<g transform="translate(0.000000,3072.000000) scale(0.100000,-0.100000)"
fill="#000000" stroke="none">
<path d="M13115 28904 c-143 -22 -155 -25 -295 -62 -161 -43 -380 -144 -530
-244 -306 -204 -499 -418 -702 -778 -14 -25 -50 -85 -79 -135 -29 -49 -62
-108 -74 -130 -13 -22 -38 -67 -57 -100 -263 -454 -368 -636 -384 -664 -10
-18 -23 -41 -29 -50 -5 -9 -39 -67 -75 -129 -36 -62 -78 -134 -93 -160 -15
-26 -33 -58 -40 -72 -6 -14 -15 -29 -20 -35 -4 -5 -52 -86 -106 -180 -53 -93
-172 -300 -264 -458 -92 -159 -167 -293 -167 -297 0 -5 -3 -10 -7 -12 -5 -1
-17 -20 -28 -40 -11 -20 -56 -99 -100 -175 -44 -76 -81 -144 -83 -150 -2 -7
-8 -13 -13 -13 -5 0 -9 -4 -9 -9 0 -8 -110 -202 -161 -286 -11 -16 -22 -37
-26 -45 -3 -8 -28 -51 -53 -95 -26 -44 -58 -99 -71 -122 -13 -23 -69 -119
-124 -214 -55 -95 -112 -193 -126 -218 -70 -124 -372 -647 -379 -656 -4 -5
-18 -30 -32 -55 -62 -112 -92 -165 -97 -170 -4 -3 -15 -23 -27 -45 -26 -50
-310 -541 -332 -575 -9 -14 -17 -27 -17 -30 0 -4 -33 -62 -85 -150 -41 -69
-86 -147 -89 -155 -2 -5 -7 -12 -10 -15 -3 -3 -15 -21 -25 -40 -32 -59 -245
-430 -297 -516 -27 -45 -49 -87 -49 -93 0 -6 -4 -11 -10 -11 -5 0 -10 -4 -10
-9 0 -5 -79 -145 -176 -312 -97 -167 -185 -320 -195 -339 -11 -19 -32 -56 -47
-81 -15 -25 -74 -128 -132 -228 -58 -100 -112 -194 -121 -209 -9 -15 -68 -117
-131 -227 -63 -110 -131 -227 -150 -260 -20 -33 -47 -80 -60 -105 -23 -41
-146 -253 -189 -325 -10 -16 -24 -41 -32 -55 -19 -35 -240 -418 -298 -518 -27
-45 -49 -85 -49 -89 0 -4 -6 -14 -14 -22 -7 -9 -28 -43 -46 -76 -17 -33 -35
-64 -40 -70 -4 -5 -20 -32 -35 -60 -15 -27 -39 -70 -53 -95 -14 -25 -33 -57
-43 -72 -11 -14 -19 -28 -19 -31 0 -2 -52 -93 -115 -202 -63 -108 -115 -199
-115 -202 0 -3 -8 -17 -19 -31 -10 -15 -29 -47 -43 -72 -38 -69 -178 -312
-196 -340 -9 -14 -17 -27 -17 -30 0 -3 -17 -32 -37 -65 -20 -33 -136 -233
-258 -445 -122 -212 -230 -398 -240 -415 -9 -16 -70 -122 -135 -235 -165 -287
-667 -1156 -730 -1265 -29 -49 -87 -151 -130 -225 -43 -74 -94 -162 -114 -195
-20 -33 -42 -71 -49 -85 -6 -14 -23 -43 -35 -65 -13 -22 -68 -116 -122 -210
-54 -93 -136 -234 -182 -313 -45 -78 -83 -145 -83 -148 0 -3 -8 -18 -19 -32
-10 -15 -29 -47 -43 -72 -23 -40 -262 -456 -358 -620 -108 -185 -228 -394
-255 -441 -11 -20 -123 -215 -250 -433 -126 -218 -239 -414 -251 -434 -62
-111 -300 -521 -315 -544 -11 -14 -19 -29 -19 -31 0 -3 -39 -72 -86 -154 -93
-158 -114 -195 -142 -245 -25 -43 -192 -334 -305 -528 -49 -85 -97 -168 -107
-185 -69 -120 -184 -319 -242 -420 -37 -66 -73 -127 -78 -135 -5 -8 -17 -28
-26 -45 -9 -16 -88 -153 -175 -304 -88 -150 -159 -277 -159 -282 0 -5 -4 -9
-9 -9 -5 0 -12 -9 -16 -19 -3 -11 -42 -81 -85 -156 -44 -74 -80 -139 -80 -143
0 -5 -5 -13 -12 -20 -12 -12 -64 -101 -90 -152 -7 -14 -15 -27 -18 -30 -3 -3
-12 -18 -20 -35 -8 -16 -19 -37 -26 -45 -27 -34 -126 -233 -167 -335 -52 -131
-101 -319 -121 -470 -14 -109 -15 -423 -1 -525 34 -251 139 -551 260 -750 12
-19 33 -55 47 -80 33 -58 41 -73 193 -335 70 -121 137 -238 150 -260 28 -49
171 -296 295 -510 51 -88 101 -176 112 -195 11 -19 43 -75 71 -123 65 -111
103 -176 116 -202 6 -11 23 -41 38 -67 15 -25 56 -95 91 -155 34 -59 74 -128
88 -153 14 -25 80 -139 146 -255 66 -115 129 -222 139 -237 11 -15 19 -29 19
-32 0 -3 45 -82 100 -176 55 -94 100 -173 100 -175 0 -3 16 -29 35 -60 19 -30
40 -65 46 -77 5 -13 15 -32 22 -43 55 -90 87 -148 87 -156 0 -5 5 -9 10 -9 6
0 10 -4 10 -10 0 -13 118 -210 141 -236 11 -11 19 -23 19 -27 0 -8 4 -12 86
-112 295 -359 738 -617 1189 -694 33 -5 76 -13 95 -18 51 -11 23150 -14 23230
-3 173 25 193 28 265 46 56 14 173 52 273 89 115 42 317 154 437 244 293 218
440 408 767 991 14 25 48 83 75 130 27 47 94 162 147 255 54 94 105 181 114
195 9 14 17 27 17 30 0 3 8 16 17 30 9 14 51 86 93 160 43 74 86 149 96 165
10 17 23 39 29 50 5 11 23 43 40 70 16 28 33 57 37 65 3 8 21 39 40 68 18 29
33 55 33 57 0 3 18 35 40 71 22 36 40 68 40 71 0 2 16 29 35 59 19 30 35 57
35 60 0 3 20 38 43 77 24 40 55 92 69 117 14 25 49 86 78 135 29 50 62 108 74
130 12 22 24 42 29 43 4 2 7 7 7 12 0 7 82 152 119 210 8 14 16 27 16 30 0 3
8 16 17 30 15 24 67 114 111 190 10 19 62 109 115 200 244 422 272 475 325
610 55 142 98 302 113 425 3 22 7 51 10 65 10 43 12 351 3 440 -16 158 -70
386 -113 485 -8 17 -17 41 -21 55 -15 49 -87 193 -157 313 -39 67 -84 147
-101 177 -16 30 -36 62 -43 71 -8 8 -14 19 -14 22 0 4 -37 71 -83 150 -46 78
-86 149 -90 157 -4 8 -15 27 -25 42 -32 50 -72 121 -72 129 0 5 -4 9 -10 9 -5
0 -10 5 -10 11 0 6 -17 39 -37 73 -21 33 -38 63 -38 66 0 3 -8 16 -16 30 -17
25 -110 186 -146 250 -11 19 -46 80 -78 135 -32 55 -74 127 -92 160 -19 33
-38 65 -42 70 -5 6 -22 35 -38 65 -17 30 -80 141 -140 245 -60 105 -116 201
-124 215 -8 14 -16 27 -19 30 -3 3 -13 21 -23 40 -9 19 -25 49 -36 65 -17 29
-227 391 -269 465 -26 46 -274 475 -300 520 -19 32 -40 68 -101 175 -153 266
-258 448 -281 485 -15 25 -39 65 -53 90 -13 25 -41 74 -62 110 -21 36 -45 79
-55 95 -9 17 -65 113 -123 214 -59 101 -107 185 -107 187 0 1 -22 39 -50 84
-27 45 -50 83 -50 85 0 3 -185 325 -231 400 -10 17 -26 46 -37 65 -11 19 -134
233 -274 475 -140 242 -257 447 -261 455 -4 8 -16 29 -26 45 -11 17 -30 48
-42 70 -41 75 -44 80 -60 105 -18 28 -198 339 -237 410 -14 25 -45 79 -69 120
-24 41 -49 84 -55 95 -7 11 -92 158 -190 327 -98 170 -178 312 -178 318 0 5
-4 10 -10 10 -5 0 -10 4 -10 9 0 5 -35 70 -79 143 -43 73 -90 154 -104 180
-15 26 -83 144 -152 263 -69 118 -125 217 -125 221 0 3 -13 25 -30 49 -16 24
-30 46 -30 50 0 3 -16 31 -35 61 -19 30 -35 57 -35 60 0 4 -22 43 -49 88 -39
64 -233 399 -444 766 -11 19 -33 60 -50 90 -16 30 -36 62 -43 71 -8 8 -14 19
-14 24 0 4 -15 31 -32 59 -18 28 -42 67 -53 88 -11 21 -52 93 -91 160 -40 68
-81 139 -92 158 -11 19 -94 164 -186 323 -92 158 -176 304 -187 325 -12 20
-52 89 -89 152 -55 95 -253 437 -320 555 -10 17 -50 86 -90 155 -40 68 -81
138 -90 155 -9 16 -38 65 -64 108 -25 43 -46 80 -46 82 0 1 -45 81 -101 176
-56 96 -111 192 -124 214 -12 22 -32 56 -43 75 -12 19 -26 44 -32 55 -6 11
-21 38 -34 60 -12 22 -92 159 -176 305 -84 146 -210 362 -278 480 -69 118
-132 229 -140 245 -8 17 -21 37 -27 45 -7 8 -26 39 -41 68 -16 29 -33 61 -39
70 -28 48 -71 123 -160 277 -54 94 -128 222 -165 285 -37 63 -147 255 -245
425 -98 171 -217 375 -263 455 -47 80 -94 161 -105 180 -10 19 -87 152 -170
295 -82 143 -158 274 -167 290 -9 17 -59 102 -110 190 -51 88 -101 175 -111
193 -113 197 -397 689 -420 727 -10 17 -32 55 -49 85 -17 30 -39 69 -49 85
-10 17 -30 53 -45 80 -16 28 -32 55 -36 60 -4 6 -19 30 -32 55 -41 72 -139
243 -156 270 -9 14 -14 25 -11 25 2 0 -5 14 -17 30 -11 17 -74 122 -139 235
-65 113 -140 242 -167 286 -26 45 -48 85 -48 88 0 4 -8 19 -19 34 -15 22 -140
237 -231 397 -10 17 -31 54 -49 83 -17 29 -31 55 -31 58 0 3 -13 24 -28 47
-15 23 -34 56 -42 72 -8 17 -22 41 -31 55 -9 14 -78 133 -154 265 -127 222
-229 386 -258 417 -7 7 -28 34 -47 60 -41 55 -221 235 -300 300 -54 44 -253
178 -264 178 -4 0 -23 10 -44 23 -52 33 -232 109 -329 141 -136 43 -247 67
-408 86 -38 5 -1031 8 -2205 8 -1756 -1 -2151 -3 -2225 -14z m2585 -7238 c36
-3 81 -8 101 -11 20 -3 54 -7 75 -10 35 -4 90 -12 204 -30 19 -3 46 -8 60 -11
14 -3 39 -8 55 -11 73 -12 345 -86 472 -129 326 -110 648 -264 923 -442 60
-39 252 -173 260 -182 3 -3 36 -30 75 -60 38 -30 81 -64 95 -76 14 -13 36 -32
50 -44 119 -103 377 -348 629 -601 252 -252 317 -319 606 -633 11 -12 56 -62
99 -111 44 -50 85 -95 90 -100 6 -6 36 -39 66 -75 88 -104 95 -112 141 -165
43 -50 55 -65 179 -215 33 -41 69 -84 78 -95 10 -11 33 -40 52 -65 19 -25 37
-47 40 -50 11 -9 316 -404 347 -450 17 -25 41 -55 52 -67 12 -12 21 -25 21
-28 0 -3 5 -11 10 -18 6 -7 29 -38 53 -70 146 -198 297 -414 297 -426 0 -5 4
-11 8 -13 19 -7 474 -709 569 -878 11 -19 47 -80 80 -135 114 -191 205 -352
328 -580 21 -38 49 -90 63 -115 40 -72 333 -656 382 -760 137 -298 154 -334
195 -430 18 -41 42 -95 53 -120 11 -25 33 -74 47 -110 14 -36 34 -83 44 -105
10 -22 48 -116 86 -210 37 -93 71 -179 75 -190 17 -42 59 -154 95 -250 20 -55
41 -112 47 -127 5 -15 8 -29 7 -31 -2 -2 1 -10 7 -18 6 -8 17 -32 23 -54 7
-22 16 -49 21 -60 5 -11 38 -105 74 -210 35 -104 66 -197 69 -205 3 -8 15 -49
27 -90 13 -41 34 -109 48 -150 13 -41 26 -81 27 -90 2 -8 18 -62 35 -120 17
-58 47 -161 66 -230 20 -69 39 -138 44 -155 5 -16 38 -147 75 -290 56 -222 76
-305 100 -418 2 -10 7 -27 10 -37 3 -10 7 -27 9 -37 2 -10 18 -85 35 -168 31
-146 35 -167 46 -230 3 -16 7 -39 9 -50 2 -12 7 -48 11 -80 4 -33 8 -71 11
-85 21 -142 32 -493 20 -660 -10 -142 -16 -213 -21 -234 -2 -12 -7 -46 -10
-77 -3 -31 -7 -66 -10 -77 -2 -11 -6 -37 -10 -58 -6 -39 -15 -90 -19 -109 -9
-38 -16 -74 -20 -95 -21 -112 -103 -392 -152 -517 -52 -136 -76 -197 -84 -212
-74 -154 -120 -252 -120 -257 0 -3 -10 -20 -22 -37 -13 -18 -22 -34 -22 -37 1
-3 -4 -14 -11 -25 -6 -11 -31 -54 -55 -95 -217 -376 -536 -757 -881 -1050
-103 -88 -112 -96 -205 -165 -102 -77 -401 -275 -416 -275 -3 0 -32 -16 -64
-35 -147 -89 -470 -231 -693 -305 -131 -44 -392 -125 -431 -135 -35 -8 -316
-87 -330 -92 -8 -3 -19 -7 -25 -9 -5 -1 -118 -30 -250 -64 -214 -54 -314 -79
-395 -96 -14 -3 -41 -9 -60 -14 -19 -5 -46 -11 -60 -14 -14 -2 -47 -9 -75 -16
-52 -12 -411 -86 -455 -94 -14 -2 -36 -7 -50 -10 -14 -3 -41 -8 -60 -10 -19
-3 -96 -17 -170 -30 -74 -14 -157 -28 -185 -32 -27 -3 -52 -8 -55 -9 -3 -2
-26 -6 -50 -10 -25 -3 -72 -10 -105 -15 -33 -5 -78 -12 -100 -15 -22 -3 -53
-7 -70 -10 -42 -6 -87 -13 -182 -25 -119 -16 -132 -17 -193 -24 -30 -4 -73 -9
-95 -12 -22 -3 -51 -7 -65 -9 -14 -2 -59 -7 -100 -10 -41 -4 -88 -9 -105 -11
-16 -2 -59 -6 -95 -9 -36 -2 -85 -7 -110 -10 -46 -5 -89 -9 -245 -20 -49 -3
-112 -8 -140 -11 -27 -2 -97 -6 -155 -9 -58 -3 -135 -8 -172 -10 -412 -26
-1387 -26 -1833 0 -38 2 -121 7 -184 10 -62 3 -132 8 -155 10 -22 2 -84 6
-136 10 -52 3 -113 8 -135 10 -22 2 -71 7 -110 10 -38 4 -86 8 -105 10 -38 4
-123 13 -210 21 -65 6 -126 13 -160 19 -14 2 -52 7 -84 10 -33 3 -73 8 -90 10
-17 2 -53 7 -81 10 -95 12 -311 43 -340 49 -11 2 -42 7 -68 10 -27 4 -56 9
-65 10 -10 2 -38 6 -63 10 -46 7 -54 8 -157 26 -96 16 -116 20 -138 24 -12 2
-38 7 -58 10 -21 3 -72 13 -114 22 -42 9 -88 18 -102 19 -32 4 -346 70 -475
99 -55 13 -154 36 -220 51 -244 56 -723 184 -1015 271 -282 85 -675 224 -690
245 -3 3 -16 10 -30 14 -36 11 -332 165 -425 222 -189 115 -375 249 -550 395
-110 92 -352 330 -430 423 -27 32 -57 66 -65 75 -27 28 -206 264 -225 298 -11
17 -23 32 -27 32 -4 0 -8 6 -8 13 0 8 -9 22 -20 32 -11 10 -20 22 -20 27 0 5
-18 36 -40 68 -22 32 -40 63 -40 69 0 5 -3 11 -7 13 -24 10 -214 399 -283 578
-29 74 -56 144 -60 155 -46 111 -131 438 -164 630 -20 118 -24 141 -41 295 -9
81 -18 264 -18 390 0 223 14 404 49 620 21 134 21 133 49 265 15 66 28 131 31
145 3 14 9 41 14 60 5 19 12 49 15 65 3 17 30 129 60 250 31 121 58 231 61
245 22 101 185 668 251 875 47 148 193 584 206 615 5 14 11 30 12 36 5 20 197
529 221 583 13 29 24 57 24 62 0 5 9 28 19 52 11 23 43 98 71 167 29 69 59
141 67 160 74 169 103 236 196 440 128 282 373 770 524 1044 23 43 43 80 43
81 0 16 430 748 442 753 5 2 8 8 8 13 0 9 121 205 219 354 25 39 50 78 56 88
10 18 278 412 342 502 47 67 205 287 216 300 4 6 67 89 139 185 114 153 431
556 447 570 3 3 24 28 46 55 21 28 42 52 45 55 3 3 55 64 115 135 89 106 203
238 260 301 6 6 44 48 85 94 41 46 104 115 140 153 36 39 101 109 145 156 274
295 949 948 1085 1050 19 14 40 31 45 37 29 33 354 260 440 308 17 9 44 25 60
35 68 41 281 153 295 156 3 0 36 15 74 33 38 18 92 42 120 53 28 11 65 27 81
34 89 41 444 150 583 180 135 29 309 60 397 70 28 3 64 8 80 10 17 2 73 7 125
11 52 3 96 7 98 9 5 4 495 -3 562 -9z"/>
</g>
</svg>
